<svg xmlns="http://www.w3.org/2000/svg" width="800" height="182" fill="none"><path fill="#1065C1" d="M235.076 66.674V51.596h64.925v15.078h-23.292v61.736h-18.304V66.674zm73.992 61.736V51.596h31.731q8.626 0 14.89 3.113 6.302 3.075 9.714 8.851 3.414 5.74 3.414 13.616 0 7.989-3.489 13.577-3.488 5.55-9.901 8.477-6.414 2.888-15.191 2.888H320.17V87.49h16.616q4.2 0 7.013-1.088 2.851-1.125 4.314-3.375 1.463-2.289 1.463-5.851 0-3.564-1.463-5.889-1.463-2.362-4.314-3.526-2.85-1.2-7.013-1.2h-9.152v61.849zm43.246-35.106 19.128 35.106h-20.254l-18.753-35.106zM379 128.41V51.596h53.56v15.078h-34.994v15.753h32.256v15.115h-32.256v15.79h34.994v15.078zm81.803 0h-19.954l25.917-76.814h24.717l25.918 76.814h-19.954l-18.041-57.46h-.6zm-2.663-30.23h41.707v14.102H458.14zm106.679-23.555q-.375-4.125-3.338-6.414-2.927-2.325-8.364-2.325-3.601 0-6.001.938t-3.601 2.588q-1.2 1.613-1.238 3.713-.075 1.725.675 3.038.787 1.313 2.251 2.325 1.5.975 3.6 1.726 2.101.75 4.726 1.312l6.601 1.5q5.702 1.239 10.052 3.301 4.388 2.063 7.352 4.914 3 2.85 4.538 6.563 1.537 3.714 1.575 8.327-.037 7.276-3.675 12.49-3.639 5.212-10.465 7.989-6.789 2.775-16.39 2.775-9.64 0-16.803-2.888t-11.14-8.776-4.088-14.891h17.778q.225 3.714 1.988 6.189t4.838 3.751q3.113 1.275 7.202 1.275 3.75 0 6.376-1.013 2.663-1.013 4.088-2.813t1.463-4.126q-.038-2.175-1.35-3.713-1.314-1.575-4.051-2.7-2.701-1.163-6.901-2.138l-8.027-1.876q-9.977-2.288-15.715-7.388-5.739-5.139-5.701-13.878-.038-7.126 3.825-12.49t10.69-8.364 15.565-3q8.927 0 15.491 3.038 6.6 3 10.239 8.439 3.638 5.438 3.713 12.602zm74.676-23.03h18.529v49.548q0 8.589-4.089 14.965-4.088 6.338-11.402 9.827-7.314 3.45-16.99 3.45-9.79 0-17.104-3.45-7.313-3.489-11.364-9.827-4.051-6.376-4.051-14.965V51.596h18.566V99.53q0 3.975 1.725 7.089 1.763 3.112 4.914 4.875t7.314 1.763 7.276-1.763q3.15-1.763 4.913-4.875 1.764-3.114 1.763-7.09V51.597Zm30.165 76.815V51.596h31.731q8.627 0 14.89 3.113 6.301 3.075 9.715 8.851 3.413 5.74 3.413 13.616 0 7.989-3.488 13.577-3.488 5.55-9.902 8.477-6.414 2.888-15.19 2.888h-20.067V87.49h16.616q4.2 0 7.014-1.088 2.85-1.125 4.313-3.375 1.463-2.289 1.463-5.851 0-3.564-1.463-5.889-1.463-2.362-4.313-3.526-2.851-1.2-7.014-1.2h-9.152v61.849zm43.246-35.106 19.128 35.106h-20.253l-18.754-35.106zm26.686 35.106V51.596h53.56v15.078h-34.994v15.753h32.256v15.115h-32.256v15.79h34.994v15.078zM182.325 58.927a13.3 13.3 0 0 1-.997 4.961c-.198.52-.431 1.003-.686 1.502-3.215 6.207-10.27 9.942-17.408 13.049-8.649 3.766-17.725 6.135-24.67 7.792l-1.746.406h-.072c-11.008 2.015-18.141 3.9-24.312 8.067-6.432 4.343-13.673 11.185-17.528 18.811 1.61-22.858 14.224-44.754 33.668-57.419 11.616-7.564 24.842-11.948 36.291-12.031h.125c5.849 0 11.87 3.07 15.018 7.667a12.75 12.75 0 0 1 2.317 7.195"/><path fill="#1065C1" d="M131.65 157.255a13.51 13.51 0 0 1-10.005 7.792 15.69 15.69 0 0 1-13.538-4.198c-4.104-3.994-7.07-9.35-9.61-17.371-2.681-8.442-3.918-14.946-3.777-19.876 0-.291.026-.576.046-.867v-.037c2.634-12.156 11.138-21.912 24.598-28.202 3.969-1.855 8.239-3.045 12.499-4.063-7.273 7.792-4.831 17.99-2.977 25.735.229.967.452 1.902.655 2.811.426 1.922.904 3.86 1.413 5.917 2.592 10.369 5.512 22.145.696 32.359m-41.389-28.9c-4.26-7.413-11.87-13.854-18.53-17.844-6.39-3.823-13.615-5.319-24.712-6.753h-.072l-1.772-.312c-7.018-1.262-16.213-3.117-25.055-6.426-7.298-2.706-14.54-6.047-18.062-12.073-.286-.483-.52-.976-.769-1.46a12.52 12.52 0 0 1 .634-12.202c2.909-4.795 8.831-8.203 14.701-8.478 11.429-.52 24.884 3.117 36.884 10.041 20.114 11.58 33.901 32.723 36.753 55.507"/><path fill="#1065C1" d="M88.286 158.437c-2.104 8.14-4.774 13.652-8.655 17.87a15.72 15.72 0 0 1-13.288 4.925 13.5 13.5 0 0 1-10.39-7.216c-5.366-9.938-3.086-21.855-1.08-32.374.4-2.078.774-4.042 1.096-5.985.15-.914.322-1.865.519-2.841 1.429-7.834 3.314-18.151-4.369-25.523 4.307.774 8.64 1.73 12.702 3.367 13.782 5.553 22.805 14.826 26.088 26.821v.062q.063.414.094.836c.358 4.92-.525 11.481-2.717 20.058m-3.453-88.288c27.729-3.228 48.531-20.24 46.464-37.997S105.076 2.617 77.347 5.845C49.62 9.072 28.817 26.085 30.884 43.84c2.067 17.757 26.22 29.535 53.95 26.308Z"/></svg>