<svg xmlns="http://www.w3.org/2000/svg" viewBox="0 0 318 189.27"><defs><style>.cls-1{fill:#673f9e}</style></defs><g id="Layer_2" data-name="Layer 2"><g id="Layer_1-2" data-name="Layer 1"><path d="M93.64 39c-2.41 3.75-4.54 7.4-6.23 10.33-1.79 3.13-3.47 6.19-5.21 9.39-1.64-2.67-3.29-5.29-5-7.83a134 134 0 0 0-7.86-11.08 56 56 0 0 0-8.66-8.92 27.3 27.3 0 0 0-9.67-5.14 25 25 0 0 0-2.61-.55c-.45-.07-.9-.12-1.35-.17h-1.44a35.7 35.7 0 0 0-5.95.26 34.4 34.4 0 0 0-5.78 1.25 31.5 31.5 0 0 0-10.44 5.62 35 35 0 0 0-4.4 4.36 42.5 42.5 0 0 0-6.68 11.22 65.2 65.2 0 0 0-3.8 13.43 109 109 0 0 0-1.32 12.09c-.06.8-.1 1.61-.14 2.42H7A69 69 0 0 1 4 61a57 57 0 0 1-.26-5.08 55.3 55.3 0 0 1 .82-10.46A46.8 46.8 0 0 1 10 30.09a41.1 41.1 0 0 1 11.26-12.66 44 44 0 0 1 3.61-2.4 42 42 0 0 1 3.84-2 44 44 0 0 1 8.15-2.82A51 51 0 0 1 45.33 9l1.06-.06h3.4a39 39 0 0 1 4.56.48A43.3 43.3 0 0 1 71 16.12 72.7 72.7 0 0 1 83.67 27a149 149 0 0 1 9.97 12m17.92 25.29c-2.76 4-5.49 8.12-8.24 12.32q-2.42 3.67-4.91 7.38c-2-2.8-3.86-5.61-5.69-8.4C90 71.4 87.38 67.18 84.83 63l-.22-.35c2-3.75 4.09-7.54 6.27-11.34 1.7-3 3.44-5.92 5.3-8.87 2.14 2.94 4.2 5.89 6.23 8.79 2.79 4 5.52 8 8.28 11.82q.42.64.87 1.24m105 23.18-.6.8a119.5 119.5 0 0 1-10.5 12.17 79.4 79.4 0 0 1-13.11 10.71 65 65 0 0 1-7.72 4.26 61 61 0 0 1-8.36 3.12 58.2 58.2 0 0 1-17.55 2.29 58.2 58.2 0 0 1-17.55-2.29 61 61 0 0 1-8.37-3.12 65 65 0 0 1-7.71-4.26A79 79 0 0 1 112 100.44a119.5 119.5 0 0 1-10.5-12.17l-.6-.8c1.87-2.75 3.77-5.6 5.75-8.63 2.36-3.6 4.88-7.42 7.43-11.12 1.64 2.21 3.3 4.36 5 6.43 5.69 7 11.76 13.14 18.35 17.31a44 44 0 0 0 5 2.77 37.6 37.6 0 0 0 5.2 2 42.4 42.4 0 0 0 11.1 1.79 42.4 42.4 0 0 0 11.09-1.79 37.6 37.6 0 0 0 5.2-2 43.5 43.5 0 0 0 5-2.77c6.59-4.17 12.66-10.31 18.35-17.31 1.68-2.07 3.35-4.22 5-6.43 2.56 3.71 5.07 7.52 7.43 11.12 2.04 3.1 3.95 5.96 5.76 8.63m10-36.12c2.17 3.8 4.24 7.59 6.27 11.34l-.22.35c-2.55 4.14-5.14 8.36-7.87 12.59-1.82 2.79-3.7 5.6-5.68 8.4q-2.51-3.7-4.91-7.38c-2.76-4.2-5.48-8.33-8.25-12.32.3-.4.58-.81.87-1.21 2.76-3.83 5.49-7.8 8.28-11.82 2-2.9 4.09-5.85 6.23-8.79 1.84 2.92 3.59 5.89 5.28 8.84m87.18 4.36c0 1.76-.11 3.51-.27 5.24a68.4 68.4 0 0 1-3.05 14.74h-.08c0-.81-.08-1.62-.14-2.42a106 106 0 0 0-1.38-12.14A64.6 64.6 0 0 0 305 47.69a42.8 42.8 0 0 0-6.68-11.22 34 34 0 0 0-4.41-4.36 32 32 0 0 0-5-3.33 32.4 32.4 0 0 0-5.45-2.29 34 34 0 0 0-5.77-1.25 36 36 0 0 0-6-.26L271 25h-.69c-.45.05-.9.1-1.34.17a25 25 0 0 0-2.63.55 27.2 27.2 0 0 0-9.66 5.14 56 56 0 0 0-8.66 8.92c-2.74 3.41-5.33 7.17-7.87 11.08q-2.49 3.81-4.94 7.82c-1.63-3-3.39-6.18-5.21-9.37-1.68-2.93-3.8-6.57-6.22-10.35a149 149 0 0 1 10-12 72.4 72.4 0 0 1 12.67-10.91 43.15 43.15 0 0 1 16.64-6.65 39 39 0 0 1 4.56-.48h3.39l1.07.06a51 51 0 0 1 8.47 1.25 44 44 0 0 1 8.15 2.77c1.31.6 2.59 1.26 3.84 2s2.44 1.54 3.6 2.4a41 41 0 0 1 11.27 12.66 46.8 46.8 0 0 1 5.47 15.32 54.6 54.6 0 0 1 .83 10.33" class="cls-1"/><path d="M317.43 74.24c0 1.3-.11 2.59-.21 3.89a64.5 64.5 0 0 1-3.12 15.5 62 62 0 0 1-3.08 7.51 55 55 0 0 1-4.24 7.12 48.6 48.6 0 0 1-5.5 6.48 43.6 43.6 0 0 1-6.84 5.48 41.1 41.1 0 0 1-21.56 6.44h-.34a37 37 0 0 1-4.43-.27 38.6 38.6 0 0 1-9.29-2.36 46 46 0 0 1-8.26-4.28 63 63 0 0 1-7-5.4 98.7 98.7 0 0 1-11.43-12.21c-3.38-4.22-6.46-8.51-9.41-12.78q-1.85-2.67-3.62-5.33-2.51-3.7-4.91-7.38c-2.76-4.2-5.48-8.33-8.25-12.32-2.75-4-5.58-7.81-8.43-11.45-5.79-7.3-11.99-13.66-18.51-17.88a38 38 0 0 0-9.9-4.61 34.6 34.6 0 0 0-9.77-1.36h-1.26a34.6 34.6 0 0 0-9.77 1.36 38 38 0 0 0-9.9 4.61c-6.5 4.2-12.7 10.56-18.44 17.83-2.85 3.64-5.67 7.46-8.42 11.44-2.76 4-5.49 8.12-8.24 12.32q-2.42 3.67-4.91 7.38-1.78 2.66-3.63 5.33c-3 4.27-6 8.56-9.41 12.78a98 98 0 0 1-11.43 12.21 61 61 0 0 1-7 5.4 45.4 45.4 0 0 1-8.31 4.31 38.6 38.6 0 0 1-9.28 2.36 37 37 0 0 1-4.43.27h-.34A40.54 40.54 0 0 1 23 120.22a43 43 0 0 1-6.84-5.48 48 48 0 0 1-5.51-6.48 56 56 0 0 1-4.23-7.12 61 61 0 0 1-3.09-7.51 64.5 64.5 0 0 1-3.11-15.5c-.1-1.3-.22-2.59-.22-3.89v-3.87a63 63 0 0 1 .73-7.64q.61 3.76 1.48 7.42c.29 1.22.62 2.42 1 3.61s.7 2.38 1.09 3.54a72 72 0 0 0 6 13.23 53 53 0 0 0 8.43 11 36 36 0 0 0 10.58 7.4 28 28 0 0 0 5.8 1.89 27.6 27.6 0 0 0 5.72.6H41a28 28 0 0 0 2.93-.17 22 22 0 0 0 2.73-.5 22.6 22.6 0 0 0 5.11-2 36.1 36.1 0 0 0 9.23-7.64 87 87 0 0 0 8.07-10.79c5.07-7.85 9.59-16.59 14.35-25.49.38-.71.77-1.42 1.15-2.14 2-3.75 4.09-7.54 6.27-11.34 1.7-3 3.44-5.92 5.3-8.87q1.47-2.37 3.06-4.71a134 134 0 0 1 10.17-13.29 83.5 83.5 0 0 1 13.11-12.14 66 66 0 0 1 8-5.09 63 63 0 0 1 8.93-3.93 57.7 57.7 0 0 1 38.58 0 63 63 0 0 1 8.92 3.93 67 67 0 0 1 8 5.09A84 84 0 0 1 208 24.48a132 132 0 0 1 10.16 13.29q1.59 2.34 3.07 4.71c1.86 3 3.61 5.92 5.3 8.87 2.17 3.8 4.24 7.59 6.27 11.34.38.72.77 1.43 1.15 2.14 4.76 8.9 9.27 17.64 14.35 25.49a86 86 0 0 0 8.07 10.79 36.1 36.1 0 0 0 9.23 7.63 21.3 21.3 0 0 0 7.85 2.52 27 27 0 0 0 2.92.17h.22a27.7 27.7 0 0 0 5.72-.6 28 28 0 0 0 5.79-1.89 36 36 0 0 0 10.59-7.4 53 53 0 0 0 8.43-11 72.7 72.7 0 0 0 6-13.23c.39-1.16.77-2.34 1.1-3.54s.67-2.39 1-3.61q.88-3.66 1.48-7.42a61 61 0 0 1 .74 7.64q.02 1.92-.01 3.86" style="fill:#9950ff"/><path d="m12.8 188.57-12-40h9.14l5.24 17.34c.36 1.19.7 2.44 1 3.76s.64 3 1 4.94c.32-2 .65-3.62 1-4.92s.67-2.55 1-3.78l4.91-17.34h9.78l4.7 17.34c.32 1.23.65 2.51 1 3.84s.67 2.95 1 4.86c.39-2 .75-3.66 1.08-4.94s.66-2.5 1-3.65L48 148.59h8.91l-12.2 40h-8.52l-7.29-26.28-7.51 26.26Zm74.49 0H61.9v-40h25.39v8.11H68.22l2.43-2.27v10.1H85.4v7.67H70.65v10.53l-2.43-2.27h19.07Zm15.94-39.98v40h-8.75v-40Zm-7.19 40v-8.11h23v8.11Zm37.22-40v40h-8.75v-40Zm-7.18 40v-8.11h23v8.11Zm35.49-.02-15-40H156l7.56 20.21c.47 1.22.9 2.5 1.3 3.83s.81 2.86 1.24 4.59c.5-1.9 1-3.49 1.38-4.75s.83-2.49 1.27-3.67l7.45-20.21h9.13l-14.69 40Zm53.8 0H190v-40h25.39v8.11H196.3l2.43-2.27v10.1h14.75v7.67h-14.75v10.53l-2.43-2.27h19.07Zm15.93 0h-8.75v-40H238q7.29 0 11.26 3.38t4 9.59a12.77 12.77 0 0 1-1.64 6.64 12.15 12.15 0 0 1-5 4.49l7 15.88h-9.56l-6-14h-6.76Zm0-32.2v10.54h6.7a6.47 6.47 0 0 0 4.45-1.41 5 5 0 0 0 1.6-3.94 4.83 4.83 0 0 0-1.54-3.86 6.62 6.62 0 0 0-4.46-1.33Zm26.2 3.84a11.1 11.1 0 0 1 1.89-6.4 12.84 12.84 0 0 1 5.21-4.38 17.4 17.4 0 0 1 7.59-1.59 17 17 0 0 1 7.46 1.51 11.25 11.25 0 0 1 4.83 4.27 12.1 12.1 0 0 1 1.7 6.53h-8.69a4.1 4.1 0 0 0-1.46-3.32 6 6 0 0 0-3.94-1.21 7.12 7.12 0 0 0-4.24 1.13 3.63 3.63 0 0 0-1.6 3.13 3.83 3.83 0 0 0 1 2.81 6 6 0 0 0 3.08 1.41l6 1.24q5.34 1.08 7.94 3.75a10.23 10.23 0 0 1 2.59 7.43 12 12 0 0 1-1.89 6.73 12.25 12.25 0 0 1-5.32 4.45 19.1 19.1 0 0 1-8 1.57 18.7 18.7 0 0 1-7.75-1.51 11.34 11.34 0 0 1-6.99-10.76h8.69a4 4 0 0 0 1.57 3.35 7.3 7.3 0 0 0 4.48 1.19 8.6 8.6 0 0 0 4.7-1.11 3.37 3.37 0 0 0 1.73-3 3.78 3.78 0 0 0-.83-2.6 5.06 5.06 0 0 0-2.84-1.29l-6.11-1.25q-5.34-1.08-8.07-4.1a11.42 11.42 0 0 1-2.73-7.98m60.5 28.36h-25.39v-40H318v8.11h-19.07l2.43-2.27v10.1h14.75v7.67h-14.75v10.53l-2.43-2.27H318Z" class="cls-1"/></g></g></svg>